<svg xmlns="http://www.w3.org/2000/svg" xmlns:svg="http://www.w3.org/2000/svg" id="svg8" width="210mm" height="297mm" version="1.1" viewBox="0 0 210 297"><metadata id="metadata5"/><g id="layer1" style="opacity:1"><path style="opacity:.39599998;fill:red;stroke-width:.50007582" id="path75" d="m 175.77197,111.64387 c 1.80301,47.48619 -50.07609,85.65286 -94.864999,69.9549 C 35.039197,169.27916 13.826931,108.46135 42.111029,70.29771 67.435961,30.103344 131.80126,27.823968 159.90598,66.12624 c 10.22031,12.811475 15.90674,29.131278 15.86599,45.51763 z"/><path style="fill:#0f0;stroke-width:.52437598" id="path77" d="m 145.04398,105.93992 c 0.82451,19.72857 -21.97544,34.81353 -39.81157,26.39153 C 86.749375,125.40612 81.700481,98.538345 96.427575,85.385251 110.766,70.13349 139.31878,77.879384 143.9998,98.275189 c 0.69247,2.491971 1.04457,5.079061 1.04418,7.664731 z"/><path style="fill:#00f;stroke-width:.52666551" id="rect3772" d="m 64.645911,77.398379 c 4.994055,0 9.988109,0 14.982164,0 0,25.440691 0,50.881391 0,76.322081 -4.994055,0 -9.988109,0 -14.982164,0 0,-25.44069 0,-50.88139 0,-76.322081 z"/></g></svg>