<svg xmlns="http://www.w3.org/2000/svg" xmlns:xlink="http://www.w3.org/1999/xlink" id="Capa_1" width="792" height="792" x="0" style="enable-background:new 0 0 792 792" y="0" version="1.1" viewBox="0 0 792 792" xml:space="preserve"><g><g><path d="M432,0h-72c-36,0-36,54.108-37.08,54.108V72h-64.368c0,0-78.552,0-78.552,75.78V716.22 c0,75.168,78.552,75.78,78.552,75.78h274.896c0,0,78.552,0,78.552-75.78V147.78C612,72,533.448,72,533.448,72H468V54.108 C468,54.108,468,0,432,0z M507.996,144c0,0,32.004,0,32.004,33.876v508.248C540,720,507.996,720,507.996,720H284.004 c0,0-32.004,0-32.004-33.876V177.876c0-34.92,32.004-33.876,32.004-33.876H507.996z"/><polygon points="394.488 648 468 407.628 394.488 417.096 394.488 252 324 485.28 394.488 463.104"/></g></g></svg>