<svg xmlns="http://www.w3.org/2000/svg" xmlns:svg="http://www.w3.org/2000/svg" id="Layer_1" x="0" y="0" version="1.1" viewBox="0 0 496.2 496.2" xml:space="preserve" style="enable-background:new 0 0 496.2 496.2"><metadata id="metadata93"/><path style="fill:#e2ba13" id="path4" d="m 122.4,94 c -8.9,10.3 -8.1,25.6 1.7,34 4,3.4 8.8,5.2 13.7,5.5 1.3,2.9 3.3,5.5 5.8,7.7 9.8,8.5 25,7 33.9,-3.3 4.2,-4.9 6.3,-11 6.2,-16.9 2.2,-1.4 4.3,-3.1 6.2,-5.2 8.9,-10.3 8.1,-25.6 -1.7,-34 -9.8,-8.4 -25,-7 -33.9,3.3 -0.8,0.9 -1.4,1.8 -2.1,2.7 -9.6,-5.1 -22.1,-2.8 -29.8,6.2 z"/><path style="fill:#edc92f" id="path6" d="m 201.1,82.5 c -10.8,0.7 -19,9.6 -18.4,19.9 0.3,4.1 1.9,7.9 4.5,10.8 -0.9,2.4 -1.3,4.9 -1.2,7.6 0.6,10.3 9.9,18.1 20.7,17.4 5.2,-0.3 9.7,-2.5 13,-5.8 2,0.5 4.2,0.7 6.4,0.6 10.8,-0.7 19,-9.6 18.4,-19.9 -0.6,-10.3 -9.9,-18.1 -20.7,-17.4 -0.9,0.1 -1.8,0.2 -2.7,0.4 -2.4,-8.4 -10.6,-14.2 -20,-13.6 z"/><path style="fill:#efd35b" id="path8" d="m 108.7,145.6 c 0,-10.8 -8.4,-19.6 -18.7,-19.6 -4.2,0 -8,1.4 -11.1,3.8 -2.3,-1.1 -4.8,-1.6 -7.5,-1.6 -10.3,0 -18.7,8.8 -18.7,19.6 0,5.2 1.9,9.9 5,13.4 -0.6,2 -1,4.1 -1,6.3 0,10.8 8.4,19.6 18.7,19.6 10.3,0 18.7,-8.8 18.7,-19.6 0,-0.9 -0.1,-1.8 -0.2,-2.7 8.5,-2 14.8,-9.8 14.8,-19.2 z"/><path style="fill:#f9e595" id="path10" d="m 129.7,155.9 c 10.8,-0.6 19.1,-9.5 18.5,-19.8 -0.2,-4.2 -1.9,-7.9 -4.5,-10.9 0.9,-2.4 1.4,-4.9 1.2,-7.6 -0.6,-10.3 -9.8,-18.1 -20.6,-17.5 -5.2,0.3 -9.7,2.5 -13,5.8 -2,-0.5 -4.2,-0.8 -6.4,-0.6 -10.8,0.6 -19.1,9.5 -18.5,19.8 0.6,10.3 9.8,18.1 20.6,17.5 0.9,-0.1 1.8,-0.2 2.7,-0.3 2.4,8.2 10.6,14.1 20,13.6 z"/><g id="g22" transform="translate(-66)"><path style="fill:#efd35b" id="path12" d="m 359.7,177.7 c 10.8,-0.6 19.1,-9.5 18.5,-19.8 -0.2,-4.2 -1.9,-7.9 -4.5,-10.9 0.9,-2.4 1.4,-4.9 1.2,-7.6 -0.6,-10.3 -9.8,-18.1 -20.6,-17.5 -5.2,0.3 -9.7,2.5 -13,5.8 -2,-0.5 -4.2,-0.8 -6.4,-0.6 -10.8,0.6 -19.1,9.5 -18.5,19.8 0.6,10.3 9.8,18.1 20.6,17.5 0.9,-0.1 1.8,-0.2 2.7,-0.3 2.4,8.3 10.6,14.2 20,13.6 z"/><path style="fill:#efd35b" id="path14" d="m 204.2,174.1 c 10.8,-0.6 19.1,-9.5 18.5,-19.8 -0.2,-4.2 -1.9,-7.9 -4.5,-10.9 0.9,-2.4 1.4,-4.9 1.2,-7.6 -0.6,-10.3 -9.8,-18.1 -20.6,-17.5 -5.2,0.3 -9.7,2.5 -13,5.8 -2,-0.5 -4.2,-0.8 -6.4,-0.6 -10.8,0.6 -19.1,9.5 -18.5,19.8 0.6,10.3 9.8,18.1 20.6,17.5 0.9,-0.1 1.8,-0.2 2.7,-0.3 2.4,8.3 10.6,14.1 20,13.6 z"/><path style="fill:#efd35b" id="path16" d="m 249.1,152.2 c 10.8,-0.6 19.1,-9.5 18.5,-19.8 -0.2,-4.1 -1.9,-7.9 -4.5,-10.9 0.9,-2.4 1.4,-4.9 1.2,-7.6 -0.6,-10.3 -9.8,-18.1 -20.6,-17.5 -5.2,0.3 -9.7,2.5 -13,5.8 -2,-0.5 -4.2,-0.8 -6.4,-0.6 -10.8,0.6 -19.1,9.5 -18.5,19.8 0.6,10.3 9.8,18.1 20.6,17.5 0.9,-0.1 1.8,-0.2 2.7,-0.3 2.4,8.3 10.6,14.2 20,13.6 z"/><path style="fill:#efd35b" id="path18" d="m 343.9,141.2 c 6.1,-8.9 4.2,-20.9 -4.2,-26.7 -3.4,-2.4 -7.4,-3.4 -11.3,-3.1 -1.3,-2.2 -3,-4.1 -5.2,-5.6 -8.5,-5.9 -20.4,-3.4 -26.5,5.5 -2.9,4.2 -4,9.2 -3.4,13.8 -1.7,1.3 -3.2,2.8 -4.4,4.6 -6.1,8.9 -4.2,20.9 4.3,26.7 8.5,5.9 20.4,3.4 26.5,-5.5 0.5,-0.8 1,-1.5 1.4,-2.3 7.8,3.2 17.5,0.4 22.8,-7.4 z"/><path style="fill:#efd35b" id="path20" d="m 258.2,145.6 c 1.3,-10.7 -6,-20.4 -16.2,-21.7 -4.1,-0.5 -8.1,0.5 -11.5,2.5 -2.2,-1.3 -4.6,-2.2 -7.2,-2.5 -10.2,-1.2 -19.6,6.5 -20.9,17.2 -0.6,5.1 0.7,10 3.4,13.9 -0.9,1.9 -1.5,4 -1.8,6.2 -1.3,10.7 6,20.4 16.2,21.7 10.2,1.2 19.6,-6.5 20.9,-17.2 0.1,-0.9 0.2,-1.8 0.1,-2.7 8.6,-1 15.9,-8 17,-17.4 z"/></g><path style="fill:#f9e595" id="path24" d="m 165.1,161.3 c -1.3,12.2 7.1,23 18.7,24.3 4.7,0.5 9.2,-0.6 12.9,-3 2.5,1.5 5.2,2.4 8.2,2.8 11.6,1.2 22,-7.6 23.3,-19.8 0.6,-5.8 -1,-11.3 -4,-15.6 1,-2.2 1.6,-4.5 1.9,-7 1.3,-12.2 -7.1,-23 -18.6,-24.3 -11.6,-1.2 -22,7.6 -23.3,19.8 -0.1,1 -0.1,2.1 -0.1,3.1 -9.8,1 -17.9,9.1 -19,19.7 z"/><path style="fill:#efd35b" id="path26" d="m 264.2,161.7 c 6.3,-8.8 4.5,-20.8 -3.9,-26.8 -3.4,-2.4 -7.3,-3.5 -11.3,-3.3 -1.3,-2.2 -3,-4.1 -5.2,-5.7 -8.4,-6 -20.3,-3.6 -26.6,5.2 -3,4.2 -4.1,9.1 -3.6,13.8 -1.7,1.2 -3.2,2.8 -4.5,4.6 -6.2,8.8 -4.5,20.8 3.9,26.8 8.4,6 20.3,3.6 26.6,-5.2 0.5,-0.8 1,-1.5 1.4,-2.3 8,3.3 17.7,0.5 23.2,-7.1 z"/><g id="g36" transform="translate(-66)"><path style="fill:#e5ddd7" id="path28" d="m 383.2,143.9 c -0.7,-0.7 -1.7,-1 -2.7,-0.8 l -15.2,-6.7 -16.9,13.5 -19.1,-5.9 -14.8,13.1 -17.2,-6.3 -15.4,13.2 -16,-6.5 -17.8,13.7 -19.3,-14 -14.4,6.9 -18,-13.8 -15.3,6.7 -16.8,-13.5 -16.3,6.5 -16.1,-13.4 -16.1,6.5 c -1,-0.2 -2,0.1 -2.7,0.8 -0.7,0.7 -1,1.7 -0.9,2.7 l 40.6,243.7 c 0.2,1.1 1,2 2.1,2.4 l 92.4,28.2 c 0,0 0,0 0.1,0 v 0 h 0.1 c 0.1,0 0.2,0.1 0.3,0.1 0.1,0 0.2,0 0.3,0 h 0.1 v 0 0 h 0.1 c 0.1,0 0.2,0 0.3,0 0.1,0 0.2,0 0.3,-0.1 h 0.1 v 0 c 0,0 0,0 0.1,0 l 92.4,-28.2 c 1.1,-0.3 1.9,-1.3 2.1,-2.4 l 40.5,-243.8 c 0.1,-0.9 -0.2,-1.9 -0.9,-2.6 z"/><path style="fill:#e5ddd7" id="path30" d="M 248.1,418 Z"/><path style="fill:#e5ddd7" id="path32" d="M 248.1,418 Z"/><polygon style="fill:#e5ddd7" id="polygon34" points="248.1 174.3 248.1 418"/></g><g id="g46" transform="translate(-66)"><polygon style="fill:#ea4949" id="polygon38" points="143.6 152.1 132.8 141.4 122.5 147.6 160.8 391.3 175.5 395.8"/><polygon style="fill:#ea4949" id="polygon40" points="175.9 159 165.9 148.4 154.8 154.5 183.3 398.2 197.9 402.6"/><polygon style="fill:#ea4949" id="polygon42" points="208.2 165.8 196.3 154.9 187.1 161.3 205.7 405 220.4 409.5"/><polygon style="fill:#ea4949" id="polygon44" points="240.5 172.7 229.3 161.9 219.4 168.2 228.2 411.9 242.8 416.3"/></g><g id="g56" transform="translate(-66)"><polygon style="fill:#bf1717" id="polygon48" points="277.8 168 265.9 162.1 256.7 172.5 254.1 416.1 268.8 411.6"/><polygon style="fill:#bf1717" id="polygon50" points="310.1 161.1 298.5 155.2 289 165.6 276.5 409.3 291.2 404.8"/><polygon style="fill:#bf1717" id="polygon52" points="342.4 154.3 330.9 148.3 321.3 158.7 299 402.4 313.7 397.9"/><polygon style="fill:#bf1717" id="polygon54" points="374.7 147.4 362.8 141.5 353.6 151.9 321.4 395.6 336.1 391.1"/></g><g id="g198" transform="translate(495.65891,-14.207748)"><polygon id="polygon115" points="248.331 190.841 494.859 190.841 464.083 511.941 279.106 511.941 262.919 343.052 256.669 277.838" transform="matrix(0.61956132,0,0,0.61956132,-402.60752,120.89813)" style="fill:#52a2e7"/><polygon id="polygon117" points="435.567 20.107 418.563 3.103 361.786 60.058 361.787 60.058 361.787 154.878 385.835 154.878 385.835 70.018" transform="matrix(0.61956132,0,0,0.61956132,-402.60752,120.89813)" style="fill:#ff6243"/><path id="path119" d="m -157.74451,239.11724 c 0,0 -14.63652,20.35755 -14.63652,82.01071 0,61.65318 48.65726,44.49195 48.65726,116.94902 h -31.87829 c 0,-72.45707 -48.65725,-55.29646 -48.65725,-116.94902 0,-61.65254 14.63651,-82.01071 14.63651,-82.01071 z" style="fill:#3c66b1;stroke-width:.61956131"/><polygon id="polygon121" points="497.419 145.885 509.929 190.811 236.361 190.811 248.871 145.885 416.075 145.885 478.617 145.885" transform="matrix(0.61956132,0,0,0.61956132,-402.60752,120.89813)" style="fill:#c6c3cb"/><polygon id="polygon123" points="494.762 190.811 509.929 190.811 497.42 145.885 478.617 145.885 461.491 145.885 474.001 190.811 458.834 190.811 428.155 510.898 464.083 510.898" transform="matrix(0.61956132,0,0,0.61956132,-402.60752,120.89813)" style="opacity:.43000004;fill:#3c66b1;enable-background:new"/><g id="g127" transform="matrix(0.61956132,0,0,0.61956132,-402.60752,120.89813)" style="opacity:.4"><rect id="rect125" width="24.047" height="39.878" x="361.787" y="106.014" style="fill:#891c00"/></g></g></svg>