<svg xmlns="http://www.w3.org/2000/svg" xmlns:svg="http://www.w3.org/2000/svg" id="Capa_1" x="0" y="0" version="1.1" viewBox="0 0 512 512" xml:space="preserve" style="enable-background:new 0 0 512 512"><metadata id="metadata45"/><rect style="fill:#0277bd" id="rect2" width="149.333" height="256" x="10.667" y="-277.333" transform="scale(1,-1)"/><path style="fill:#01579b" id="path4" d="M 160,10.667 H 10.667 C 4.776,10.667 0,15.442 0,21.333 v 256 C 0,283.224 4.776,288 10.667,288 H 160 c 5.891,0 10.667,-4.776 10.667,-10.667 v -256 c 0,-5.891 -4.776,-10.666 -10.667,-10.666 z M 21.333,32 h 128 v 234.667 h -128 z"/><path style="fill:#eceff1" id="path6" d="m 160,64 c 18.59,-13.606 40.965,-21.064 64,-21.333 h 197.333 c 20.571,-0.072 37.306,16.546 37.378,37.118 0.036,10.343 -4.23,20.236 -11.778,27.309 20.37,2.201 35.1,20.499 32.899,40.869 -0.956,8.848 -5.061,17.057 -11.565,23.131 20.373,2.177 35.124,20.458 32.946,40.831 -1.337,12.508 -8.921,23.487 -20.146,29.164 20.018,12.432 26.167,38.738 13.735,58.756 -7.763,12.5 -21.42,20.118 -36.135,20.156 H 309.333 c 11.719,30.799 18.905,63.136 21.333,96 0,40 -34.667,74.667 -53.333,74.667 -11.512,-0.168 -22.69,-3.894 -32,-10.667 v -74.667 l -64,-138.667 L 160,256 Z"/><path style="fill:#01579b" id="path8" d="M 421.333,32 H 224 c -25.865,0.206 -50.969,8.783 -71.552,24.448 -1.999,2.004 -3.12,4.721 -3.115,7.552 v 192 c 0,4.037 2.279,7.728 5.888,9.536 l 17.984,9.003 61.461,133.12 V 480 c -0.007,3.242 1.461,6.312 3.989,8.341 11.226,8.25 24.747,12.791 38.677,12.992 24.683,0 64,-39.061 64,-85.333 -1.612,-29.11 -7.359,-57.842 -17.067,-85.333 h 134.4 c 29.455,0 53.333,-23.878 53.333,-53.333 0.035,-13.237 -4.916,-26.002 -13.867,-35.755 18.566,-18.691 18.464,-48.894 -0.227,-67.46 -3.591,-3.567 -7.728,-6.54 -12.253,-8.807 3.32,-6.62 5.037,-13.928 5.013,-21.333 -0.02,-18.056 -10.212,-34.561 -26.347,-42.667 3.32,-6.62 5.037,-13.928 5.013,-21.333 C 469.286,53.492 447.82,32.035 421.333,32 Z M 170.667,68.885 C 186.82,59.219 205.184,53.864 224,53.333 H 421.333 C 436.056,53.345 447.988,65.277 448,80 c 10e-4,7.328 -3.053,14.324 -8.427,19.307 -4.291,4.036 -4.498,10.787 -0.462,15.078 1.729,1.839 4.055,3.005 6.563,3.29 14.517,1.534 25.042,14.547 23.507,29.064 -0.67,6.34 -3.609,12.224 -8.275,16.568 -4.291,4.036 -4.498,10.787 -0.462,15.078 1.729,1.839 4.055,3.005 6.563,3.29 14.518,1.53 25.046,14.539 23.516,29.056 -0.946,8.98 -6.411,16.856 -14.492,20.885 -5.235,2.702 -7.289,9.135 -4.587,14.371 0.889,1.724 2.232,3.172 3.883,4.189 14.999,9.347 19.581,29.083 10.234,44.082 -5.794,9.298 -15.941,14.985 -26.896,15.075 H 309.333 c -5.891,0.003 -10.664,4.781 -10.661,10.672 10e-4,1.296 0.237,2.581 0.699,3.792 11.241,29.593 18.188,60.642 20.629,92.203 0,34.944 -30.976,64 -42.667,64 -7.482,-0.121 -14.815,-2.108 -21.333,-5.781 v -68.885 c -0.002,-1.546 -0.336,-3.074 -0.981,-4.48 l -64,-138.667 c -1.016,-2.192 -2.746,-3.975 -4.907,-5.056 l -15.445,-7.723 V 68.885 Z"/></svg>