<svg xmlns="http://www.w3.org/2000/svg" xmlns:svg="http://www.w3.org/2000/svg" id="Layer_1" x="0" y="0" version="1.1" viewBox="0 0 512 512" xml:space="preserve" style="enable-background:new 0 0 512 512"><metadata id="metadata161"/><g id="g124"><path style="fill:#eb8923" id="path16" d="M405.73,466.553c0,16.031-14.485,29.027-32.354,29.027H114.558 c-17.869,0-32.354-12.996-32.354-29.027V29.027C82.204,12.998,96.689,0,114.558,0h258.817c17.869,0,32.354,12.998,32.354,29.027 v437.526H405.73z"/><path style="fill:#e2e5e7" id="path18" d="M382.041,242.89c0,2.707-2.038,4.9-4.553,4.9H110.443c-2.513,0-4.552-2.193-4.552-4.9V33.797 c0-2.707,2.039-4.9,4.552-4.9h267.045c2.515,0,4.553,2.193,4.553,4.9L382.041,242.89L382.041,242.89z"/><circle style="fill:#c6cbcb" id="circle20" cx="243.966" cy="365.64" r="101.082"/><circle style="fill:#e2e5e7" id="circle78" cx="243.966" cy="365.64" r="95.771"/><circle style="fill:#c6cbcb" id="circle80" cx="243.967" cy="365.64" r="36.825"/><g id="g88"><polygon style="fill:#c6cbcb" id="polygon82" points="315.284 365.642 308.742 369.417 302.201 373.194 302.201 365.642 302.201 358.086 308.742 361.864"/><polygon style="fill:#c6cbcb" id="polygon84" points="326.206 365.642 319.662 369.417 313.122 373.194 313.122 365.642 313.122 358.086 319.662 361.864"/><path style="fill:#c6cbcb" id="path86" d="M327.731,373.427c0,0.843-0.683,1.526-1.525,1.526l0,0c-0.842,0-1.525-0.684-1.525-1.526v-15.573 c0-0.843,0.684-1.526,1.525-1.526l0,0c0.843,0,1.525,0.684,1.525,1.526V373.427z"/></g><g id="g96"><polygon style="fill:#c6cbcb" id="polygon90" points="172.651 365.642 179.193 369.417 185.733 373.194 185.733 365.642 185.733 358.086 179.193 361.864"/><polygon style="fill:#c6cbcb" id="polygon92" points="161.73 365.642 168.272 369.417 174.813 373.194 174.813 365.642 174.813 358.086 168.272 361.864"/><path style="fill:#c6cbcb" id="path94" d="M160.203,373.427c0,0.843,0.683,1.526,1.526,1.526l0,0c0.842,0,1.524-0.684,1.524-1.526v-15.573 c0-0.843-0.683-1.526-1.524-1.526l0,0c-0.844,0-1.526,0.684-1.526,1.526V373.427z"/></g><g id="g106"><polygon style="fill:#c6cbcb" id="polygon98" points="243.478 440.074 236.934 443.85 230.394 447.626 230.394 440.074 230.394 432.519 236.934 436.297"/><g id="g104"><path style="fill:#c6cbcb" id="path100" d="M250.458,446.069c0,0.648-0.684,1.175-1.526,1.175l0,0c-0.842,0-1.525-0.526-1.525-1.175v-11.993 c0-0.649,0.684-1.176,1.525-1.176l0,0c0.843,0,1.526,0.526,1.526,1.176V446.069z"/><path style="fill:#c6cbcb" id="path102" d="M257.54,446.069c0,0.648-0.683,1.175-1.526,1.175l0,0c-0.841,0-1.524-0.526-1.524-1.175v-11.993 c0-0.649,0.684-1.176,1.524-1.176l0,0c0.844,0,1.526,0.526,1.526,1.176V446.069z"/></g></g><g id="g116"><path style="fill:#c6cbcb" id="path108" d="M226.95,303.321c-0.099-2.118-0.22-4.669-0.196-6.885h-0.074c-0.533,1.995-1.213,4.208-1.942,6.277 l-2.41,7.101h-2.287l-2.188-7.003c-0.631-2.096-1.214-4.331-1.653-6.375h-0.048c-0.074,2.142-0.172,4.743-0.292,6.979 l-0.364,6.594h-2.798l1.094-16.395h3.94l2.141,6.593c0.583,1.92,1.094,3.867,1.508,5.689h0.073 c0.438-1.774,0.999-3.793,1.63-5.715l2.263-6.567h3.892l0.948,16.395h-2.919L226.95,303.321z"/><path style="fill:#c6cbcb" id="path110" d="M242.403,302.737h-6.18v4.814h6.91v2.458h-9.898v-16.395h9.533v2.457h-6.545v4.232h6.18 L242.403,302.737L242.403,302.737z"/><path style="fill:#c6cbcb" id="path112" d="M245.743,310.01v-16.395h3.429l4.233,7.029c1.071,1.823,2.043,3.723,2.796,5.498h0.05 c-0.219-2.188-0.268-4.307-0.268-6.811v-5.717h2.772v16.395h-3.113l-4.279-7.225c-1.048-1.799-2.118-3.794-2.921-5.643 l-0.098,0.023c0.123,2.119,0.17,4.282,0.17,6.981v5.862h-2.771L245.743,310.01L245.743,310.01z"/><path style="fill:#c6cbcb" id="path114" d="M265.185,293.615v9.559c0,3.211,1.338,4.693,3.357,4.693c2.162,0,3.453-1.482,3.453-4.693v-9.559 h2.991v9.363c0,5.061-2.602,7.299-6.542,7.299c-3.795,0-6.253-2.117-6.253-7.273v-9.389H265.185z"/></g></g></svg>